<?xml version="1.0" standalone="no"?>
<!DOCTYPE svg PUBLIC "-//W3C//DTD SVG 20010904//EN"
 "http://www.w3.org/TR/2001/REC-SVG-20010904/DTD/svg10.dtd">
<svg version="1.0" xmlns="http://www.w3.org/2000/svg"
 width="300.000000pt" height="260.000000pt" viewBox="0 0 300.000000 260.000000"
 preserveAspectRatio="xMidYMid meet">
<metadata>
Created by potrace 1.10, written by Peter Selinger 2001-2011
</metadata>
<g transform="translate(0.000000,260.000000) scale(0.100000,-0.100000)"
fill="#000000" stroke="none">
<path d="M567 1618 l2 -413 41 -3 40 -3 0 415 0 416 -42 0 -43 0 2 -412z"/>
<path d="M1584 1898 c3 -68 9 -172 12 -233 l6 -110 -20 31 c-85 134 -292 135
-380 2 -35 -53 -44 -166 -17 -219 35 -69 99 -118 173 -132 81 -16 194 38 231
110 l19 38 7 -98 7 -97 39 0 c25 0 39 5 39 13 0 6 -9 181 -20 387 -11 206 -20
387 -20 403 0 25 -3 27 -41 27 l-42 0 7 -122z m-120 -311 c96 -55 99 -183 7
-244 -43 -29 -114 -31 -155 -4 -94 62 -87 203 14 253 47 24 87 22 134 -5z
m180 -78 c3 -34 6 -77 6 -95 0 -33 -12 -44 -26 -23 -3 6 -17 8 -29 5 -22 -6
-23 -4 -22 47 1 28 -2 65 -6 80 -7 25 -5 28 11 23 11 -4 24 0 32 9 21 25 27
17 34 -46z"/>
<path d="M890 1878 c-175 -185 -168 -174 -139 -204 12 -13 25 -24 29 -24 3 0
70 68 149 151 l144 151 -29 29 -30 29 -124 -132z"/>
<path d="M2105 1976 c-150 -47 -251 -164 -278 -319 -39 -231 151 -457 385
-457 l48 0 0 39 0 38 -59 6 c-259 23 -384 305 -226 511 31 41 107 92 150 101
62 14 61 13 57 55 -5 45 -11 47 -77 26z"/>
<path d="M757 1572 c-15 -16 -27 -30 -27 -33 0 -2 76 -78 170 -167 l170 -163
29 28 29 28 -172 167 -173 167 -26 -27z"/>
<path d="M2060 1560 l0 -40 145 0 145 0 0 -155 0 -155 43 0 42 0 0 195 0 195
-187 0 -188 0 0 -40z"/>
<path d="M1070 935 c0 -50 4 -85 10 -85 6 0 10 35 10 85 0 50 -4 85 -10 85 -6
0 -10 -35 -10 -85z"/>
<path d="M1280 984 c0 -31 -2 -35 -14 -25 -26 21 -79 9 -94 -21 -27 -57 32
-118 83 -84 14 9 25 12 25 6 0 -5 3 -10 8 -10 4 0 7 38 8 85 0 47 -3 85 -8 85
-4 0 -8 -16 -8 -36z m-18 -41 c22 -20 23 -41 1 -65 -20 -22 -41 -23 -65 -1
-23 21 -23 38 2 63 24 24 38 25 62 3z"/>
<path d="M560 930 c0 -47 4 -80 10 -80 6 0 10 13 10 28 0 15 6 34 13 41 10 10
19 3 49 -31 47 -56 59 -45 13 13 l-35 44 35 33 c19 17 29 32 23 32 -7 0 -32
-19 -55 -42 l-43 -42 0 42 c0 23 -4 42 -10 42 -6 0 -10 -33 -10 -80z"/>
<path d="M1535 985 c-52 -51 -14 -139 60 -139 27 0 43 6 56 23 25 31 25 61 0
61 -11 0 -26 3 -35 6 -9 3 -16 1 -16 -5 0 -6 11 -11 25 -11 31 0 33 -23 3 -44
-30 -21 -50 -20 -76 4 -56 53 5 139 73 104 33 -17 48 -8 21 12 -31 22 -83 18
-111 -11z"/>
<path d="M1940 991 c0 -11 -6 -22 -12 -24 -10 -4 -10 -6 0 -6 8 -1 12 -18 12
-51 0 -40 4 -51 21 -60 25 -14 41 -3 16 11 -24 14 -24 96 1 102 16 4 16 5 0 6
-11 1 -18 9 -18 21 0 11 -4 20 -10 20 -5 0 -10 -9 -10 -19z"/>
<path d="M710 955 c-7 -9 -10 -19 -6 -23 4 -4 12 1 17 11 12 21 42 22 59 2 10
-12 10 -16 -1 -19 -63 -17 -74 -23 -77 -43 -4 -27 30 -47 61 -37 12 5 27 7 33
6 15 -3 5 100 -10 110 -19 13 -63 9 -76 -7z m80 -54 c0 -14 -30 -41 -45 -41
-23 0 -29 22 -10 37 21 15 55 18 55 4z"/>
<path d="M841 905 l1 -60 9 49 c8 52 25 72 46 54 16 -13 28 -4 18 12 -3 6 -22
9 -41 8 l-34 -2 1 -61z"/>
<path d="M941 956 c-21 -25 -16 -77 9 -98 12 -10 29 -18 37 -18 24 0 53 20 53
37 0 15 -2 15 -18 0 -23 -21 -46 -22 -66 -1 -27 26 -18 34 39 34 59 0 63 4 39
38 -18 26 -74 31 -93 8z m70 -6 c32 -18 21 -30 -28 -30 -45 0 -46 0 -28 20 21
23 29 24 56 10z"/>
<path d="M1337 952 c-49 -54 18 -137 78 -98 14 9 25 21 25 26 0 15 -17 12 -24
-5 -11 -30 -76 -12 -76 22 0 9 16 13 50 13 52 0 58 7 40 41 -14 25 -71 26 -93
1z m71 -4 c21 -21 13 -28 -28 -28 -22 0 -40 4 -40 8 0 14 23 32 40 32 9 0 21
-5 28 -12z"/>
<path d="M1690 908 c0 -32 4 -58 10 -58 6 0 10 17 10 38 0 21 6 47 14 57 12
17 16 17 30 6 18 -15 32 -9 21 8 -3 6 -24 10 -46 9 l-39 -1 0 -59z"/>
<path d="M1796 948 c-23 -32 -20 -55 10 -84 42 -43 104 -15 104 46 0 56 -83
83 -114 38z m75 2 c23 -13 26 -62 4 -80 -42 -35 -97 30 -60 70 21 23 29 24 56
10z"/>
<path d="M2016 951 c-25 -27 -17 -70 17 -95 26 -19 30 -19 54 -6 15 8 29 22
31 30 4 12 1 11 -15 -2 -23 -21 -54 -23 -71 -6 -26 26 -13 38 38 38 41 0 50 3
50 18 0 10 -5 23 -12 30 -19 19 -73 14 -92 -7z m72 -3 c21 -21 13 -28 -28 -28
-42 0 -52 12 -22 29 23 14 36 13 50 -1z"/>
<path d="M1410 701 c0 -60 4 -91 11 -91 7 0 9 12 6 33 -7 51 8 79 41 75 25 -3
27 -7 30 -55 4 -67 22 -70 22 -5 0 35 -5 54 -18 65 -21 19 -48 22 -57 7 -13
-21 -26 -9 -20 19 3 17 2 32 -4 36 -8 4 -11 -23 -11 -84z"/>
<path d="M1840 700 c0 -53 4 -90 10 -90 6 0 10 37 10 90 0 53 -4 90 -10 90 -6
0 -10 -37 -10 -90z"/>
<path d="M568 774 c-12 -11 -10 -164 2 -164 6 0 10 18 10 41 l0 40 48 -3 47
-3 -3 -37 c-2 -23 1 -38 7 -38 7 0 11 31 11 86 0 57 -3 83 -11 79 -5 -4 -9
-21 -7 -38 3 -32 2 -32 -42 -32 -45 0 -45 0 -50 38 -3 22 -8 35 -12 31z"/>
<path d="M742 724 c-15 -10 -22 -25 -22 -48 0 -80 107 -92 125 -14 5 21 1 33
-19 52 -29 30 -52 33 -84 10z m83 -38 c8 -24 6 -31 -13 -47 -44 -35 -98 14
-65 60 22 32 65 25 78 -13z"/>
<path d="M880 720 c-46 -46 3 -123 64 -100 20 7 26 6 26 -3 0 -31 -60 -52 -75
-27 -8 12 -25 13 -25 1 0 -18 60 -31 83 -19 33 17 37 27 37 102 0 55 -3 66
-13 58 -8 -7 -18 -7 -27 -2 -24 15 -48 12 -70 -10z m78 -12 c7 -7 12 -21 12
-33 0 -12 -5 -26 -12 -33 -7 -7 -21 -12 -33 -12 -40 0 -61 50 -33 78 7 7 21
12 33 12 12 0 26 -5 33 -12z"/>
<path d="M1031 714 c-12 -15 -21 -35 -21 -45 0 -47 81 -79 110 -44 18 22 5 31
-15 11 -20 -20 -25 -20 -53 0 -34 24 -26 34 28 34 42 0 50 3 50 18 0 24 -31
52 -58 52 -11 0 -30 -12 -41 -26z m77 -11 c2 -9 -9 -13 -38 -13 -37 0 -41 2
-30 16 15 17 61 15 68 -3z"/>
<path d="M1166 724 c-27 -26 -15 -46 37 -58 30 -7 36 -30 11 -40 -21 -8 -20
-8 -39 10 -20 20 -33 11 -15 -11 16 -20 64 -19 81 1 16 20 1 48 -29 52 -11 2
-26 10 -32 17 -17 20 16 33 41 16 21 -13 26 -2 7 17 -17 17 -44 15 -62 -4z"/>
<path d="M1281 714 c-12 -15 -21 -35 -21 -45 0 -28 36 -59 69 -59 29 0 60 25
47 37 -4 4 -10 3 -14 -3 -13 -19 -40 -23 -61 -8 -23 17 -28 53 -9 72 17 17 57
15 64 -3 8 -19 24 -19 24 0 0 17 -30 35 -59 35 -11 0 -29 -12 -40 -26z"/>
<path d="M1564 714 c-43 -42 -15 -104 46 -104 56 0 83 83 38 114 -32 23 -55
20 -84 -10z m79 -15 c32 -44 -14 -94 -59 -64 -26 17 -30 35 -14 66 14 25 55
24 73 -2z"/>
<path d="M1710 720 c-41 -41 -14 -110 43 -110 31 0 67 32 67 59 0 29 -39 71
-66 71 -13 0 -33 -9 -44 -20z m78 -12 c19 -19 14 -55 -9 -72 -43 -30 -93 20
-63 63 17 23 53 28 72 9z"/>
</g>
</svg>
